<?xml version="1.0" encoding="UTF-8" standalone="no"?>
<!DOCTYPE svg PUBLIC "-//W3C//DTD SVG 1.1//EN"
 "http://www.w3.org/Graphics/SVG/1.1/DTD/svg11.dtd">
<!-- Generated by graphviz version 2.43.0 (0)
 -->
<!-- Title: G Pages: 1 -->
<svg width="702pt" height="98pt"
 viewBox="0.00 0.00 702.00 98.00" xmlns="http://www.w3.org/2000/svg" xmlns:xlink="http://www.w3.org/1999/xlink">
<g id="graph0" class="graph" transform="scale(1 1) rotate(0) translate(4 94)">
<title>G</title>
<polygon fill="white" stroke="transparent" points="-4,4 -4,-94 698,-94 698,4 -4,4"/>
<!-- aws_eip.lb -->
<g id="node1" class="node">
<title>aws_eip.lb</title>
<polygon fill="none" stroke="black" points="381,-90 292,-90 292,-54 381,-54 381,-90"/>
<text text-anchor="middle" x="336.5" y="-68.3" font-family="sans-serif" font-size="14.00">aws_eip.lb</text>
</g>
<!-- aws_eip_association.eip_assoc -->
<g id="node2" class="node">
<title>aws_eip_association.eip_assoc</title>
<polygon fill="none" stroke="black" points="694,-63 467,-63 467,-27 694,-27 694,-63"/>
<text text-anchor="middle" x="580.5" y="-41.3" font-family="sans-serif" font-size="14.00">aws_eip_association.eip_assoc</text>
</g>
<!-- aws_eip_association.eip_assoc&#45;&gt;aws_eip.lb -->
<g id="edge1" class="edge">
<title>aws_eip_association.eip_assoc&#45;&gt;aws_eip.lb</title>
<path fill="none" stroke="black" d="M466.65,-57.59C440.25,-60.54 413.34,-63.54 390.96,-66.04"/>
<polygon fill="black" stroke="black" points="390.57,-62.56 381.02,-67.14 391.34,-69.51 390.57,-62.56"/>
</g>
<!-- aws_instance.test&#45;server -->
<g id="node3" class="node">
<title>aws_instance.test&#45;server</title>
<polygon fill="none" stroke="black" points="431,-36 242,-36 242,0 431,0 431,-36"/>
<text text-anchor="middle" x="336.5" y="-14.3" font-family="sans-serif" font-size="14.00">aws_instance.test&#45;server</text>
</g>
<!-- aws_eip_association.eip_assoc&#45;&gt;aws_instance.test&#45;server -->
<g id="edge2" class="edge">
<title>aws_eip_association.eip_assoc&#45;&gt;aws_instance.test&#45;server</title>
<path fill="none" stroke="black" d="M466.65,-32.41C458.24,-31.47 449.78,-30.53 441.42,-29.59"/>
<polygon fill="black" stroke="black" points="441.63,-26.1 431.3,-28.47 440.85,-33.05 441.63,-26.1"/>
</g>
<!-- aws_security_group.test&#45;sg -->
<g id="node4" class="node">
<title>aws_security_group.test&#45;sg</title>
<polygon fill="none" stroke="black" points="206,-36 0,-36 0,0 206,0 206,-36"/>
<text text-anchor="middle" x="103" y="-14.3" font-family="sans-serif" font-size="14.00">aws_security_group.test&#45;sg</text>
</g>
<!-- aws_instance.test&#45;server&#45;&gt;aws_security_group.test&#45;sg -->
<g id="edge3" class="edge">
<title>aws_instance.test&#45;server&#45;&gt;aws_security_group.test&#45;sg</title>
<path fill="none" stroke="black" d="M241.67,-18C233.39,-18 224.94,-18 216.53,-18"/>
<polygon fill="black" stroke="black" points="216.28,-14.5 206.28,-18 216.28,-21.5 216.28,-14.5"/>
</g>
</g>
</svg>
